<?xml version="1.0" encoding="UTF-8"?>
<svg id="Layer_2" data-name="Layer 2" xmlns="http://www.w3.org/2000/svg" width="56" height="56" viewBox="0 0 56 56">
  <defs>
    <style>
      .cls-1 {
        fill: #f9b233;
      }

      .cls-2 {
        fill: #e94e1b;
      }
    </style>
  </defs>
  <circle class="cls-2" cx="28" cy="8" r="4"/>
  <circle class="cls-2" cx="28" cy="48" r="4"/>
  <circle class="cls-2" cx="45" cy="38" r="4"/>
  <circle class="cls-2" cx="45" cy="18" r="4"/>
  <circle class="cls-2" cx="11" cy="38" r="4"/>
  <circle class="cls-2" cx="11" cy="18" r="4"/>
  <circle class="cls-1" cx="17.5" cy="18.5" r="1.5"/>
  <circle class="cls-1" cx="33.5" cy="14.5" r="2.5"/>
  <circle class="cls-1" cx="39" cy="21" r="2"/>
  <circle class="cls-1" cx="33" cy="26" r="3"/>
  <circle class="cls-1" cx="13.5" cy="32.5" r="1.5"/>
  <circle class="cls-1" cx="16" cy="35" r="1"/>
  <circle class="cls-1" cx="17.5" cy="39.5" r="1.5"/>
  <circle class="cls-1" cx="15" cy="42" r="1"/>
  <circle class="cls-1" cx="19" cy="36" r="1"/>
  <circle class="cls-1" cx="27" cy="41" r="2"/>
  <circle class="cls-1" cx="18" cy="32" r="2"/>
  <circle class="cls-1" cx="27.5" cy="23.5" r="1.5"/>
  <circle class="cls-1" cx="41" cy="33" r="1"/>
  <circle class="cls-1" cx="28" cy="27" r="1"/>
  <circle class="cls-1" cx="30" cy="30" r="1"/>
  <circle class="cls-1" cx="26.5" cy="30.5" r="1.5"/>
</svg>